<svg width="25" height="25" viewBox="0 0 25 25" fill="none" xmlns="http://www.w3.org/2000/svg">
<g clip-path="url(#clip0_716_271)">
<path d="M23.4377 3.92998V3.87004C23.3396 3.73325 23.2328 3.60296 23.1178 3.48002L20.9477 1.30993C20.47 0.856218 19.8364 0.603249 19.1776 0.603249C18.5188 0.603249 17.8852 0.856218 17.4076 1.30993L2.34731 16.3703L8.05739 22.0804L23.1178 7.02001C23.2352 6.89922 23.3422 6.76887 23.4377 6.63011C23.4377 6.63011 23.4377 6.63011 23.4377 6.63011C23.691 6.23261 23.8262 5.77132 23.8277 5.3C23.8375 4.81462 23.7017 4.33744 23.4377 3.92998V3.92998ZM20.6776 4.42999L6.67735 18.4303C6.63246 18.4781 6.57825 18.5163 6.51805 18.5423C6.45785 18.5684 6.39297 18.5818 6.32737 18.5818C6.26177 18.5818 6.19689 18.5684 6.13669 18.5423C6.07649 18.5163 6.02228 18.4781 5.97739 18.4303C5.92955 18.3854 5.89138 18.3312 5.86532 18.271C5.83926 18.2108 5.82583 18.1459 5.82583 18.0803C5.82583 18.0147 5.83926 17.9498 5.86532 17.8896C5.89138 17.8294 5.92955 17.7752 5.97739 17.7303L19.9777 3.73002C20.0236 3.68406 20.0782 3.6476 20.1382 3.62272C20.1983 3.59785 20.2627 3.585 20.3277 3.585C20.3927 3.585 20.4571 3.59785 20.5171 3.62272C20.5772 3.6476 20.6317 3.68406 20.6776 3.73002C20.7236 3.77599 20.7601 3.8305 20.785 3.89055C20.8098 3.9506 20.8227 4.015 20.8227 4.08001C20.8227 4.14501 20.8098 4.20941 20.785 4.26946C20.7601 4.32952 20.7236 4.38403 20.6776 4.42999V4.42999Z" fill="#D82B20"/>
<path d="M1.76746 17.2303L-0.152562 23.9404C-0.17763 24.0262 -0.178771 24.1172 -0.155858 24.2036C-0.132944 24.29 -0.0868415 24.3684 -0.0225539 24.4304C0.0220928 24.4785 0.0762887 24.5166 0.136568 24.5425C0.196848 24.5683 0.261852 24.5812 0.327429 24.5804H0.467447L7.17755 22.6604L1.76746 17.2303Z" fill="#D82B20"/>
</g>
<defs>
<clipPath id="clip0_716_271">
<rect width="24" height="24" fill="white" transform="translate(0.25 0.5)"/>
</clipPath>
</defs>
</svg>
