<svg width="26" height="25" viewBox="0 0 26 25" fill="none" xmlns="http://www.w3.org/2000/svg">
<path d="M1.25005 12.5024L23.0424 12.5024L15.9016 19.6531C15.8088 19.7459 15.7566 19.8719 15.7566 20.0032C15.7566 20.1345 15.8088 20.2605 15.9016 20.3533C15.9945 20.4462 16.1203 20.4981 16.2516 20.4981C16.3829 20.4981 16.5088 20.4462 16.6016 20.3533L24.6025 12.3525C24.6531 12.3102 24.6912 12.2547 24.7125 12.1923C24.7625 12.0706 24.7625 11.9342 24.7125 11.8124C24.6912 11.75 24.6531 11.6945 24.6025 11.6522L16.6016 3.65139C16.5568 3.60355 16.5025 3.56563 16.4423 3.53956C16.3821 3.5135 16.3172 3.50001 16.2516 3.50001C16.186 3.50001 16.1211 3.5135 16.0609 3.53956C16.0007 3.56563 15.9465 3.60355 15.9016 3.65139C15.8538 3.69629 15.8156 3.75063 15.7896 3.81083C15.7635 3.87104 15.7501 3.93592 15.7501 4.00152C15.7501 4.06713 15.7635 4.13201 15.7896 4.19222C15.8156 4.25242 15.8538 4.30676 15.9016 4.35166L23.0424 11.5023L1.25005 11.5023C1.11743 11.5023 0.99028 11.555 0.896502 11.6488C0.802724 11.7426 0.750002 11.8697 0.750002 12.0024C0.750002 12.135 0.802723 12.2621 0.896502 12.3559C0.99028 12.4497 1.11743 12.5024 1.25005 12.5024Z" fill="black" stroke="#D82B20" stroke-width="1.5"/>
</svg>
