<svg width="26" height="25" viewBox="0 0 26 25" fill="none" xmlns="http://www.w3.org/2000/svg">
<path d="M1.24999 12.5015L23.04 12.5015L15.9 19.6514C15.8072 19.7442 15.755 19.8702 15.755 20.0015C15.755 20.1327 15.8072 20.2587 15.9 20.3516C15.9928 20.4444 16.1187 20.4963 16.25 20.4963C16.3813 20.4963 16.5071 20.4444 16.6 20.3516L24.6 12.3516C24.6506 12.3093 24.6886 12.2538 24.71 12.1914C24.76 12.0697 24.76 11.9333 24.71 11.8115C24.6886 11.7491 24.6506 11.6936 24.6 11.6514L16.6 3.65137C16.5551 3.60354 16.5009 3.56561 16.4407 3.53955C16.3805 3.51349 16.3156 3.5 16.25 3.5C16.1844 3.5 16.1195 3.51349 16.0593 3.53955C15.9991 3.56561 15.9449 3.60354 15.9 3.65137C15.8522 3.69626 15.814 3.7506 15.788 3.81079C15.7619 3.87099 15.7485 3.93587 15.7485 4.00147C15.7485 4.06706 15.7619 4.13194 15.788 4.19214C15.814 4.25234 15.8522 4.30668 15.9 4.35157L23.04 11.5015L1.24999 11.5015C1.11739 11.5015 0.990246 11.5542 0.896478 11.648C0.80271 11.7417 0.749993 11.8689 0.749993 12.0015C0.749993 12.1341 0.80271 12.2612 0.896478 12.355C0.990246 12.4488 1.11739 12.5015 1.24999 12.5015Z" fill="white" stroke="white" stroke-width="1.5"/>
</svg>
