<svg width="25" height="25" viewBox="0 0 25 25" fill="none" xmlns="http://www.w3.org/2000/svg">
<g clip-path="url(#clip0_717_276)">
<path d="M20.0217 5.22839C19.7266 4.93327 19.2558 4.93327 18.9607 5.22839L12.75 11.4406L6.53223 5.22134C6.23718 4.92622 5.76648 4.92622 5.47129 5.22134C5.17624 5.51661 5.17624 5.98742 5.47129 6.28254L11.6891 12.5018L5.47129 18.7211C5.17624 19.0162 5.17624 19.487 5.47129 19.7821C5.61889 19.9298 5.80864 20 6.00528 20C6.20208 20 6.39168 19.9298 6.53223 19.7821L12.75 13.5629L18.9678 19.7821C19.1154 19.9298 19.305 20 19.5018 20C19.6984 20 19.8882 19.9298 20.0287 19.7821C20.3238 19.487 20.3238 19.0162 20.0287 18.7211L13.8109 12.5018L20.0287 6.28254C20.3167 5.99447 20.3167 5.51661 20.0217 5.22839Z" fill="#D82B20" stroke="#D82B20" stroke-width="1.5"/>
</g>
<defs>
<clipPath id="clip0_717_276">
<rect width="24" height="24" fill="white" transform="translate(0.75 0.5)"/>
</clipPath>
</defs>
</svg>
