<svg width="26" height="25" viewBox="0 0 26 25" fill="none" xmlns="http://www.w3.org/2000/svg">
<path d="M21.2484 9.5H18.2484C16.4905 9.5 15.0422 10.8078 14.7984 12.5H10.6968C10.4531 10.8078 9.00465 9.5 7.24695 9.5H4.2468C2.32035 9.5 0.75 11.0704 0.75 13.0016C0.75 14.9329 2.32035 16.5032 4.2516 16.5032H7.2516C9.0093 16.5032 10.4578 15.1954 10.7016 13.5032H14.8031C15.0468 15.1954 16.4953 16.5032 18.253 16.5032H21.253C23.1843 16.5032 24.7547 14.9329 24.7547 13.0016C24.7547 11.0704 23.1796 9.5 21.2484 9.5ZM7.2516 15.5H4.2516C2.8734 15.5 1.75305 14.3798 1.75305 13.0016C1.75305 11.6236 2.8734 10.5032 4.2516 10.5032H7.2516C8.45625 10.5032 9.46875 11.3657 9.7032 12.5048H8.25C7.9734 12.5048 7.7484 12.7298 7.7484 13.0062C7.7484 13.2828 7.9734 13.5078 8.25 13.5078H9.6984C9.46875 14.6423 8.45625 15.5 7.2516 15.5ZM21.2484 15.5H18.2484C17.0437 15.5 16.0313 14.6375 15.7968 13.4986H17.25C17.5266 13.4986 17.7516 13.2736 17.7516 12.997C17.7516 12.7204 17.5266 12.4954 17.25 12.4954H15.8016C16.0359 11.3563 17.0437 10.4938 18.253 10.4938H21.253C22.6312 10.4938 23.7516 11.6141 23.7516 12.9923C23.7516 14.3703 22.6266 15.5 21.2484 15.5Z" fill="white" stroke="white" stroke-width="1.5"/>
</svg>
