<svg width="25" height="25" viewBox="0 0 25 25" fill="none" xmlns="http://www.w3.org/2000/svg">
<g clip-path="url(#clip0_685_268)">
<path d="M21.7479 11.7479H13.5022V3.50225C13.5022 3.0875 13.1647 2.75 12.75 2.75C12.3353 2.75 11.9979 3.0875 11.9979 3.50225V11.7479H3.75225C3.3375 11.7479 3 12.0853 3 12.5C3 12.9147 3.3375 13.2522 3.75225 13.2522H11.9979V21.4979C11.9979 21.9126 12.3353 22.25 12.75 22.25C13.1647 22.25 13.5022 21.9126 13.5022 21.4979V13.2522H21.7479C22.1626 13.2522 22.5 12.9147 22.5 12.5C22.5 12.0853 22.1626 11.7479 21.7479 11.7479Z" fill="black" stroke="black" stroke-width="1.5"/>
</g>
<defs>
<clipPath id="clip0_685_268">
<rect width="24" height="24" fill="white" transform="translate(0.75 0.5)"/>
</clipPath>
</defs>
</svg>
