<svg width="25" height="27" viewBox="0 0 25 27" fill="none" xmlns="http://www.w3.org/2000/svg">
<path d="M12.7524 24.9999L12.7524 3.20761L19.9031 10.3484C19.9959 10.4412 20.1219 10.4934 20.2532 10.4934C20.3845 10.4934 20.5105 10.4412 20.6033 10.3484C20.6962 10.2555 20.7481 10.1297 20.7481 9.99836C20.7481 9.86708 20.6962 9.74119 20.6033 9.64835L12.6025 1.64751C12.5602 1.59687 12.5047 1.55883 12.4423 1.53751C12.3206 1.4875 12.1841 1.4875 12.0624 1.53751C12 1.55883 11.9445 1.59687 11.9022 1.64751L3.90138 9.64835C3.85355 9.69325 3.81562 9.74747 3.78956 9.80767C3.76349 9.86787 3.75 9.93276 3.75 9.99836C3.75 10.064 3.76349 10.1289 3.78956 10.1891C3.81562 10.2493 3.85355 10.3035 3.90138 10.3484C3.94628 10.3962 4.00062 10.4344 4.06083 10.4604C4.12103 10.4865 4.18592 10.4999 4.25152 10.4999C4.31712 10.4999 4.38201 10.4865 4.44221 10.4604C4.50242 10.4344 4.55676 10.3962 4.60165 10.3484L11.7523 3.20761L11.7523 24.9999C11.7523 25.1326 11.805 25.2597 11.8988 25.3535C11.9926 25.4473 12.1197 25.5 12.2524 25.5C12.385 25.5 12.5121 25.4473 12.6059 25.3535C12.6997 25.2597 12.7524 25.1326 12.7524 24.9999Z" fill="black" stroke="#D82B20" stroke-width="1.5"/>
</svg>
