<svg width="26" height="24" viewBox="0 0 26 24" fill="none" xmlns="http://www.w3.org/2000/svg">
<path d="M1.75 5.49597H24.75C24.8826 5.49597 25.0098 5.44323 25.1036 5.3494C25.1973 5.25557 25.25 5.12835 25.25 4.99566C25.25 4.86297 25.1973 4.73576 25.1036 4.64193C25.0098 4.5481 24.8826 4.49535 24.75 4.49535H1.75C1.61739 4.49535 1.49019 4.5481 1.39642 4.64193C1.30266 4.73576 1.25 4.86297 1.25 4.99566C1.25 5.12835 1.30266 5.25557 1.39642 5.3494C1.49019 5.44323 1.61739 5.49597 1.75 5.49597Z" fill="white" stroke="white" stroke-width="1.00062"/>
<path d="M24.75 11.4997H1.75C1.61739 11.4997 1.49019 11.5525 1.39642 11.6463C1.30266 11.7401 1.25 11.8673 1.25 12C1.25 12.1327 1.30266 12.2599 1.39642 12.3538C1.49019 12.4476 1.61739 12.5003 1.75 12.5003H24.75C24.8826 12.5003 25.0098 12.4476 25.1036 12.3538C25.1973 12.2599 25.25 12.1327 25.25 12C25.25 11.8673 25.1973 11.7401 25.1036 11.6463C25.0098 11.5525 24.8826 11.4997 24.75 11.4997Z" fill="white" stroke="white" stroke-width="1.00062"/>
<path d="M24.75 18.5041H1.75C1.61739 18.5041 1.49019 18.5568 1.39642 18.6506C1.30266 18.7445 1.25 18.8717 1.25 19.0044C1.25 19.1371 1.30266 19.2643 1.39642 19.3581C1.49019 19.4519 1.61739 19.5047 1.75 19.5047H24.75C24.8826 19.5047 25.0098 19.4519 25.1036 19.3581C25.1973 19.2643 25.25 19.1371 25.25 19.0044C25.25 18.8717 25.1973 18.7445 25.1036 18.6506C25.0098 18.5568 24.8826 18.5041 24.75 18.5041Z" fill="white" stroke="white" stroke-width="1.00062"/>
</svg>
