<svg width="26" height="26" viewBox="0 0 26 26" fill="none" xmlns="http://www.w3.org/2000/svg">
<path d="M7.72246 11.0711C7.80567 11.0694 7.8871 11.0468 7.95926 11.0053C8.03141 10.9638 8.09199 10.9048 8.13533 10.8337C8.18582 10.7647 8.21798 10.684 8.22881 10.5991C8.23964 10.5143 8.22879 10.4282 8.19725 10.3487C8.15377 10.2568 8.08507 10.179 7.99919 10.1247C7.91332 10.0703 7.81376 10.0415 7.71213 10.0415C7.61049 10.0415 7.51093 10.0703 7.42506 10.1247C7.33918 10.179 7.27055 10.2568 7.22706 10.3487V10.3487C7.20059 10.4279 7.19334 10.5121 7.2059 10.5946C7.21846 10.6772 7.25048 10.7557 7.29932 10.8234C7.34572 10.8948 7.4081 10.9543 7.48156 10.9973C7.55503 11.0403 7.63751 11.0656 7.72246 11.0711V11.0711Z" fill="white"/>
<path d="M18.4667 21.1755C18.5146 21.1092 18.5453 21.032 18.5561 20.951C18.5669 20.87 18.5575 20.7876 18.5287 20.7111L11.8199 1.10101C11.7843 1.00016 11.7188 0.912475 11.6322 0.849784C11.5455 0.787094 11.4418 0.75228 11.3349 0.75H3.078C2.39367 0.75 1.73737 1.02179 1.25348 1.50569C0.769582 1.98958 0.497726 2.64594 0.497726 3.33028V18.8119C0.497726 19.4963 0.769582 20.1526 1.25348 20.6365C1.73737 21.1204 2.39367 21.3922 3.078 21.3922H18.0436C18.126 21.391 18.2071 21.3708 18.2805 21.3332C18.3539 21.2957 18.4176 21.2417 18.4667 21.1755V21.1755ZM4.62617 14.5081L7.20644 7.28334C7.24993 7.19148 7.31863 7.11369 7.4045 7.05933C7.49038 7.00497 7.58987 6.97618 7.69151 6.97618C7.79314 6.97618 7.8927 7.00497 7.97857 7.05933C8.06445 7.11369 8.13315 7.19148 8.17663 7.28334L10.7569 14.5081C10.799 14.6357 10.7897 14.7746 10.731 14.8954C10.6722 15.0162 10.5687 15.1093 10.4424 15.1549C10.316 15.2006 10.1769 15.1954 10.0544 15.1401C9.93202 15.0848 9.83597 14.9839 9.78672 14.8589L8.91972 12.4439C8.88498 12.3433 8.81941 12.2561 8.73231 12.1949C8.64521 12.1338 8.54107 12.1017 8.43466 12.1032H6.94842C6.84201 12.1017 6.73786 12.1338 6.65077 12.1949C6.56367 12.2561 6.49809 12.3433 6.46336 12.4439L5.59635 14.8589C5.57473 14.9244 5.54016 14.9851 5.49474 15.037C5.44932 15.089 5.39396 15.1311 5.3319 15.1612C5.26985 15.1914 5.20237 15.209 5.13347 15.2126C5.06457 15.2163 4.99563 15.2059 4.93075 15.1824C4.86587 15.1589 4.80638 15.1227 4.75575 15.0758C4.70512 15.029 4.66439 14.9724 4.636 14.9095C4.6076 14.8466 4.59207 14.7787 4.59039 14.7097C4.5887 14.6407 4.60087 14.5723 4.62617 14.5081V14.5081Z" fill="white"/>
<path d="M17.3315 13.7854C17.4005 13.8305 17.4544 13.8954 17.4863 13.9714C17.6667 14.3465 17.8995 14.694 18.1778 15.0035C18.2254 15.0649 18.2864 15.1144 18.3562 15.1484C18.426 15.1824 18.5027 15.2 18.5804 15.1995C18.6591 15.1946 18.7358 15.1727 18.8053 15.1353C18.8748 15.0979 18.9353 15.0459 18.9828 14.9828C19.4676 14.3094 19.8859 13.5903 20.2317 12.836C20.2724 12.7597 20.2936 12.6747 20.2936 12.5883C20.2936 12.5019 20.2724 12.4168 20.2317 12.3406C20.1851 12.2679 20.121 12.2082 20.0452 12.1667C19.9695 12.1252 19.8846 12.1034 19.7982 12.1032H17.4347C17.3521 12.1036 17.2708 12.1235 17.1972 12.1612C17.1237 12.1988 17.0601 12.2531 17.0115 12.3199C16.965 12.3868 16.9344 12.4635 16.9219 12.5439C16.9094 12.6244 16.9153 12.7065 16.9393 12.7843L17.2076 13.5481C17.2278 13.6365 17.2704 13.7183 17.3315 13.7854V13.7854Z" fill="white"/>
<path d="M22.6881 4.87844H14.9472C14.8656 4.87905 14.7853 4.89898 14.7129 4.93665C14.6405 4.97432 14.5781 5.02866 14.5307 5.09514C14.4834 5.16163 14.4524 5.23841 14.4405 5.31915C14.4286 5.3999 14.4361 5.48221 14.4622 5.55954L16.227 10.7201C16.2627 10.8209 16.3282 10.9086 16.4148 10.9713C16.5015 11.034 16.6052 11.0688 16.7122 11.0711H17.5482C17.685 11.0711 17.8163 11.0167 17.913 10.9199C18.0098 10.8231 18.0642 10.6919 18.0642 10.555C18.0642 10.4182 18.1186 10.287 18.2154 10.1902C18.3121 10.0934 18.4434 10.039 18.5803 10.039C18.7172 10.039 18.8484 10.0934 18.9452 10.1902C19.0419 10.287 19.0963 10.4182 19.0963 10.555C19.0963 10.6919 19.1507 10.8231 19.2475 10.9199C19.3442 11.0167 19.4755 11.0711 19.6124 11.0711H22.7087C22.8456 11.0711 22.9768 11.1255 23.0736 11.2223C23.1704 11.3191 23.2248 11.4503 23.2248 11.5872C23.2248 11.724 23.1704 11.8552 23.0736 11.952C22.9768 12.0488 22.8456 12.1032 22.7087 12.1032H21.9966C21.8862 12.1025 21.7786 12.1372 21.6894 12.2022C21.6002 12.2673 21.5342 12.3593 21.5011 12.4646C21.0617 13.7185 20.4164 14.8904 19.5917 15.9323C19.5118 16.0258 19.4678 16.1447 19.4678 16.2677C19.4678 16.3907 19.5118 16.5099 19.5917 16.6033C20.2007 17.2226 20.8819 17.8932 21.4702 18.4299C21.5202 18.4763 21.5605 18.5322 21.5889 18.5942C21.6172 18.6562 21.633 18.7231 21.6353 18.7913C21.639 18.859 21.629 18.927 21.606 18.9908C21.5829 19.0547 21.5473 19.1132 21.5011 19.1629C21.4017 19.2558 21.2708 19.3073 21.1347 19.3073C20.9987 19.3073 20.8678 19.2558 20.7684 19.1629C20.6032 19.0081 20.242 18.6777 19.7982 18.2442C19.7169 18.1621 19.6095 18.1111 19.4945 18.0998C19.3796 18.0885 19.2643 18.1175 19.1686 18.1822C19.0693 18.2421 18.9936 18.3343 18.9542 18.4433C18.9147 18.5523 18.9139 18.6714 18.9518 18.7809L19.4885 20.3394C19.5713 20.5734 19.5965 20.8239 19.5622 21.0697C19.5279 21.3155 19.4349 21.5494 19.2912 21.7518C19.1476 21.9541 18.9574 22.1191 18.7366 22.2326C18.5159 22.346 18.2711 22.4046 18.0229 22.4037H13.6364C13.5526 22.4035 13.47 22.4242 13.3962 22.4639C13.3223 22.5035 13.2595 22.5607 13.2133 22.6307C13.1654 22.6989 13.1347 22.7778 13.1239 22.8605C13.1131 22.9432 13.1226 23.0272 13.1514 23.1054L13.9255 25.1696C13.9632 25.2675 14.0298 25.3515 14.1165 25.4105C14.2031 25.4695 14.3057 25.5007 14.4105 25.5H22.6674C23.3517 25.5 24.008 25.2282 24.4919 24.7443C24.9758 24.2604 25.2477 23.604 25.2477 22.9197V7.43806C25.2423 6.76087 24.9709 6.11299 24.4921 5.63413C24.0132 5.15527 23.3653 4.88384 22.6881 4.87844Z" fill="white"/>
</svg>
