<svg width="26" height="23" viewBox="0 0 26 23" fill="none" xmlns="http://www.w3.org/2000/svg">
<path d="M24.7475 9.49487L2.95743 9.49487L10.0974 2.34497C10.1903 2.25214 10.2425 2.12615 10.2425 1.99487C10.2425 1.8636 10.1903 1.7376 10.0974 1.64478C10.0046 1.55195 9.87874 1.5 9.74747 1.5C9.61619 1.5 9.49032 1.55195 9.39749 1.64478L1.39749 9.64478C1.34686 9.68703 1.30883 9.74253 1.28751 9.80493C1.2375 9.92666 1.2375 10.0631 1.28751 10.1848C1.30883 10.2472 1.34686 10.3027 1.39749 10.345L9.39749 18.345C9.44238 18.3928 9.4966 18.4307 9.55679 18.4568C9.61699 18.4828 9.68187 18.4963 9.74747 18.4963C9.81306 18.4963 9.87794 18.4828 9.93814 18.4568C9.99834 18.4307 10.0526 18.3928 10.0974 18.345C10.1453 18.3001 10.1834 18.2457 10.2095 18.1855C10.2356 18.1253 10.2489 18.0605 10.2489 17.9949C10.2489 17.9293 10.2356 17.8644 10.2095 17.8042C10.1834 17.744 10.1453 17.6897 10.0974 17.6448L2.95743 10.4949L24.7475 10.4949C24.8801 10.4949 25.0072 10.4422 25.101 10.3484C25.1948 10.2546 25.2475 10.1275 25.2475 9.99487C25.2475 9.86226 25.1948 9.73513 25.101 9.64136C25.0072 9.54759 24.8801 9.49487 24.7475 9.49487Z" fill="white" stroke="white" stroke-width="1.5"/>
</svg>
