<svg width="26" height="26" viewBox="0 0 26 26" fill="none" xmlns="http://www.w3.org/2000/svg">
<path d="M24.6182 11.9236L14.044 1.3393C13.7182 1.02746 13.2845 0.853271 12.8335 0.853271C12.3825 0.853271 11.9489 1.02746 11.623 1.3393L0.978814 11.9934C0.906361 12.0629 0.856958 12.153 0.837278 12.2514C0.817599 12.3498 0.828591 12.4518 0.86877 12.5437C0.906295 12.6351 0.970017 12.7132 1.05191 12.7684C1.1338 12.8236 1.2302 12.8534 1.32895 12.8539H2.82955V24.3484C2.82955 24.4811 2.88225 24.6083 2.97605 24.7021C3.06986 24.7959 3.19709 24.8486 3.32975 24.8486H9.33213C9.46479 24.8486 9.59202 24.7959 9.68583 24.7021C9.77963 24.6083 9.83233 24.4811 9.83233 24.3484V15.8451H15.8347V24.3484C15.8347 24.4811 15.8874 24.6083 15.9812 24.7021C16.075 24.7959 16.2023 24.8486 16.3349 24.8486H22.3373C22.47 24.8486 22.5972 24.7959 22.691 24.7021C22.7848 24.6083 22.8375 24.4811 22.8375 24.3484V12.8439H24.3481C24.4146 12.8452 24.4807 12.8332 24.5426 12.8087C24.6044 12.7842 24.6608 12.7476 24.7083 12.701C24.7558 12.6544 24.7935 12.5987 24.8193 12.5374C24.8451 12.476 24.8583 12.4102 24.8583 12.3437C24.8553 12.2594 24.8319 12.1773 24.7901 12.1041C24.7483 12.0309 24.6893 11.9689 24.6182 11.9236V11.9236Z" fill="white"/>
</svg>
