<svg width="26" height="26" viewBox="0 0 26 26" fill="none" xmlns="http://www.w3.org/2000/svg">
<path d="M12.8278 0.853271C10.4544 0.853271 8.13427 1.55716 6.16088 2.87573C4.18749 4.19431 2.64946 6.06827 1.7412 8.26099C0.832953 10.4537 0.59532 12.8666 1.05834 15.1943C1.52137 17.5221 2.66423 19.6604 4.34246 21.3386C6.02069 23.0169 8.15892 24.1598 10.4867 24.6228C12.8145 25.0858 15.2273 24.8482 17.42 23.9399C19.6127 23.0317 21.4868 21.4934 22.8054 19.52C24.124 17.5466 24.8278 15.2267 24.8278 12.8533C24.8278 9.67068 23.5635 6.61836 21.313 4.36792C19.0626 2.11748 16.0104 0.853271 12.8278 0.853271ZM12.8278 4.85327C13.4211 4.85327 14.0011 5.02924 14.4944 5.35889C14.9878 5.68853 15.3724 6.15714 15.5994 6.70532C15.8265 7.2535 15.8859 7.85654 15.7701 8.43848C15.6544 9.02042 15.3687 9.55505 14.9491 9.97461C14.5295 10.3942 13.995 10.6799 13.413 10.7957C12.8311 10.9114 12.2279 10.8521 11.6797 10.625C11.1315 10.3979 10.663 10.0134 10.3334 9.52002C10.0037 9.02667 9.82775 8.44662 9.82775 7.85327C9.82775 7.05762 10.1438 6.29454 10.7064 5.73193C11.269 5.16933 12.0321 4.85327 12.8278 4.85327ZM16.3278 20.8533H10.3278C9.92993 20.8533 9.54839 20.6951 9.26709 20.4138C8.98578 20.1325 8.82775 19.7511 8.82775 19.3533C8.82775 18.9555 8.98578 18.574 9.26709 18.2927C9.54839 18.0114 9.92993 17.8533 10.3278 17.8533H10.8278V14.8533H10.3278C9.92993 14.8533 9.54839 14.6951 9.26709 14.4138C8.98578 14.1325 8.82775 13.7511 8.82775 13.3533C8.82775 12.9554 8.98578 12.574 9.26709 12.2927C9.54839 12.0114 9.92993 11.8533 10.3278 11.8533H14.3278C14.7256 11.8533 15.1071 12.0114 15.3884 12.2927C15.6697 12.574 15.8278 12.9554 15.8278 13.3533V17.8533H16.3278C16.7256 17.8533 17.1071 18.0114 17.3884 18.2927C17.6697 18.574 17.8278 18.9555 17.8278 19.3533C17.8278 19.7511 17.6697 20.1325 17.3884 20.4138C17.1071 20.6951 16.7256 20.8533 16.3278 20.8533Z" fill="white"/>
</svg>
