<svg width="25" height="27" viewBox="0 0 25 27" fill="none" xmlns="http://www.w3.org/2000/svg">
<path d="M11.2457 2.00005L11.2457 23.7924L4.09506 16.6516C4.00222 16.5588 3.87621 16.5066 3.74493 16.5066C3.61364 16.5066 3.48763 16.5588 3.39479 16.6516C3.30196 16.7445 3.25 16.8703 3.25 17.0016C3.25 17.1329 3.30196 17.2588 3.39479 17.3516L11.3956 25.3525C11.4379 25.4031 11.4934 25.4412 11.5558 25.4625C11.6776 25.5125 11.814 25.5125 11.9357 25.4625C11.9981 25.4412 12.0536 25.4031 12.0959 25.3525L20.0967 17.3516C20.1446 17.3068 20.1825 17.2525 20.2086 17.1923C20.2346 17.1321 20.2481 17.0672 20.2481 17.0016C20.2481 16.936 20.2346 16.8711 20.2086 16.8109C20.1825 16.7507 20.1446 16.6965 20.0967 16.6516C20.0519 16.6038 19.9975 16.5656 19.9373 16.5396C19.8771 16.5135 19.8122 16.5001 19.7466 16.5001C19.681 16.5001 19.6161 16.5135 19.5559 16.5396C19.4957 16.5656 19.4414 16.6038 19.3965 16.6516L12.2458 23.7924L12.2458 2.00005C12.2458 1.86743 12.1931 1.74028 12.0993 1.6465C12.0055 1.55272 11.8784 1.5 11.7458 1.5C11.6131 1.5 11.486 1.55272 11.3922 1.6465C11.2984 1.74028 11.2457 1.86743 11.2457 2.00005Z" fill="black" stroke="#D82B20" stroke-width="1.5"/>
</svg>
