<svg width="26" height="27" viewBox="0 0 26 27" fill="none" xmlns="http://www.w3.org/2000/svg">
<path d="M19.7484 9.9984C19.7484 10.275 19.9734 10.5 20.25 10.5H24.2484C24.525 10.5 24.75 10.275 24.75 9.9984V6.04215C24.75 5.7657 24.525 5.54055 24.2484 5.54055C23.9718 5.54055 23.747 5.7657 23.747 6.04215V8.9907C21.0845 4.09215 17.2968 1.5 12.75 1.5C6.13125 1.5 0.75 6.88125 0.75 13.5C0.75 20.1187 6.13125 25.5 12.75 25.5C19.3687 25.5 24.75 20.1187 24.75 13.5C24.75 13.2234 24.525 12.9984 24.2484 12.9984C23.9718 12.9984 23.747 13.2234 23.747 13.5C23.747 19.5656 18.8109 24.5016 12.7454 24.5016C6.67965 24.5016 1.7484 19.5656 1.7484 13.5C1.7484 7.43445 6.68445 2.4984 12.75 2.4984C17.9156 2.4984 21.0797 6.15465 22.8938 9.49695H20.25C19.9734 9.5016 19.7484 9.72195 19.7484 9.9984Z" fill="white" stroke="white" stroke-width="1.5"/>
</svg>
