<svg width="26" height="25" viewBox="0 0 26 25" fill="none" xmlns="http://www.w3.org/2000/svg">
<path d="M24.2499 11.4957L2.45761 11.4957L9.59838 4.34506C9.69121 4.25222 9.74341 4.12621 9.74341 3.99493C9.74341 3.86364 9.69121 3.73763 9.59838 3.64479C9.50554 3.55196 9.37965 3.5 9.24836 3.5C9.11708 3.5 8.99119 3.55196 8.89835 3.64479L0.897507 11.6456C0.846873 11.6879 0.808833 11.7434 0.78751 11.8058C0.737496 11.9276 0.737496 12.064 0.78751 12.1857C0.808833 12.2481 0.846873 12.3036 0.897507 12.3459L8.89835 20.3467C8.94325 20.3946 8.99747 20.4325 9.05767 20.4586C9.11787 20.4846 9.18276 20.4981 9.24836 20.4981C9.31397 20.4981 9.37885 20.4846 9.43906 20.4586C9.49926 20.4325 9.55348 20.3946 9.59838 20.3467C9.64621 20.3019 9.68439 20.2475 9.71045 20.1873C9.73651 20.1271 9.74988 20.0622 9.74988 19.9966C9.74988 19.931 9.73651 19.8661 9.71045 19.8059C9.68439 19.7457 9.64621 19.6914 9.59838 19.6465L2.45761 12.4958L24.2499 12.4958C24.3826 12.4958 24.5097 12.4431 24.6035 12.3493C24.6973 12.2555 24.75 12.1284 24.75 11.9958C24.75 11.8631 24.6973 11.736 24.6035 11.6422C24.5097 11.5484 24.3826 11.4957 24.2499 11.4957Z" fill="black" stroke="#D82B20" stroke-width="1.5"/>
</svg>
