<svg width="26" height="25" viewBox="0 0 26 25" fill="none" xmlns="http://www.w3.org/2000/svg">
<path d="M1.74999 12.5015L23.54 12.5015L16.4 19.6514C16.3072 19.7442 16.255 19.8702 16.255 20.0015C16.255 20.1327 16.3072 20.2587 16.4 20.3516C16.4928 20.4444 16.6187 20.4963 16.75 20.4963C16.8813 20.4963 17.0071 20.4444 17.1 20.3516L25.1 12.3516C25.1506 12.3093 25.1886 12.2538 25.21 12.1914C25.26 12.0697 25.26 11.9333 25.21 11.8115C25.1886 11.7491 25.1506 11.6936 25.1 11.6514L17.1 3.65137C17.0551 3.60354 17.0009 3.56561 16.9407 3.53955C16.8805 3.51349 16.8156 3.5 16.75 3.5C16.6844 3.5 16.6195 3.51349 16.5593 3.53955C16.4991 3.56561 16.4449 3.60354 16.4 3.65137C16.3522 3.69626 16.314 3.75059 16.288 3.81079C16.2619 3.87099 16.2485 3.93587 16.2485 4.00146C16.2485 4.06706 16.2619 4.13194 16.288 4.19214C16.314 4.25234 16.3522 4.30667 16.4 4.35156L23.54 11.5015L1.74999 11.5015C1.61739 11.5015 1.49025 11.5542 1.39648 11.6479C1.30271 11.7417 1.24999 11.8689 1.24999 12.0015C1.24999 12.1341 1.30271 12.2612 1.39648 12.355C1.49025 12.4487 1.61739 12.5015 1.74999 12.5015Z" fill="white" stroke="white" stroke-width="1.5"/>
</svg>
