<svg width="25" height="25" viewBox="0 0 25 25" fill="none" xmlns="http://www.w3.org/2000/svg">
<path d="M21.4587 2.58696H20.937C20.8167 1.99772 20.4965 1.46815 20.0307 1.08785C19.5648 0.707547 18.9818 0.499877 18.3804 0.5H6.90217C6.30079 0.499877 5.71786 0.707547 5.252 1.08785C4.78613 1.46815 4.46592 1.99772 4.34564 2.58696H3.77174C3.63337 2.58696 3.5007 2.64196 3.40285 2.73981C3.30501 2.83765 3.25 2.97032 3.25 3.1087V5.19565C3.25 5.33403 3.30501 5.46669 3.40285 5.56454C3.5007 5.66238 3.63337 5.71739 3.77174 5.71739H21.5109C21.6492 5.71739 21.782 5.66238 21.8798 5.56454C21.9777 5.46669 22.0326 5.33403 22.0326 5.19565V3.1087C22.033 3.03556 22.018 2.96319 21.9885 2.89623C21.9591 2.82927 21.916 2.76926 21.8619 2.72007C21.8077 2.67087 21.7439 2.63357 21.6744 2.61065C21.605 2.58772 21.5315 2.57964 21.4587 2.58696Z" fill="#D82B20"/>
<path d="M20.4152 6.76086H4.76299C4.62462 6.76086 4.49189 6.81587 4.39404 6.91372C4.2962 7.01156 4.24125 7.14423 4.24125 7.2826V21.8913C4.24125 22.5832 4.5161 23.2468 5.00533 23.736C5.49455 24.2252 6.15808 24.5 6.84995 24.5H18.3282C19.0201 24.5 19.6836 24.2252 20.1728 23.736C20.6621 23.2468 20.9369 22.5832 20.9369 21.8913V7.2826C20.9369 7.14423 20.882 7.01156 20.7841 6.91372C20.6863 6.81587 20.5535 6.76086 20.4152 6.76086ZM8.41517 20.8478C8.41517 20.9862 8.36022 21.1189 8.26238 21.2167C8.16453 21.3146 8.0318 21.3696 7.89343 21.3696C7.75505 21.3696 7.62232 21.3146 7.52448 21.2167C7.42663 21.1189 7.37169 20.9862 7.37169 20.8478V10.413C7.37169 10.2747 7.42663 10.142 7.52448 10.0442C7.62232 9.94631 7.75505 9.8913 7.89343 9.8913C8.0318 9.8913 8.16453 9.94631 8.26238 10.0442C8.36022 10.142 8.41517 10.2747 8.41517 10.413V20.8478ZM13.1108 20.8478C13.1108 20.9862 13.0559 21.1189 12.958 21.2167C12.8602 21.3146 12.7275 21.3696 12.5891 21.3696C12.4507 21.3696 12.318 21.3146 12.2201 21.2167C12.1223 21.1189 12.0673 20.9862 12.0673 20.8478V10.413C12.0673 10.2747 12.1223 10.142 12.2201 10.0442C12.318 9.94631 12.4507 9.8913 12.5891 9.8913C12.7275 9.8913 12.8602 9.94631 12.958 10.0442C13.0559 10.142 13.1108 10.2747 13.1108 10.413V20.8478ZM17.8065 20.8478C17.8065 20.9862 17.7515 21.1189 17.6537 21.2167C17.5558 21.3146 17.4231 21.3696 17.2847 21.3696C17.1464 21.3696 17.0136 21.3146 16.9158 21.2167C16.8179 21.1189 16.763 20.9862 16.763 20.8478V10.413C16.763 10.2747 16.8179 10.142 16.9158 10.0442C17.0136 9.94631 17.1464 9.8913 17.2847 9.8913C17.4231 9.8913 17.5558 9.94631 17.6537 10.0442C17.7515 10.142 17.8065 10.2747 17.8065 10.413V20.8478Z" fill="#D82B20"/>
</svg>
