<svg width="25" height="25" viewBox="0 0 25 25" fill="none" xmlns="http://www.w3.org/2000/svg">
<g clip-path="url(#clip0_717_292)">
<path d="M19.7501 20.501H4.75005C4.47391 20.501 4.25005 20.7248 4.25005 21.001V24.001C4.25005 24.2771 4.47391 24.501 4.75005 24.501H19.7501C20.0262 24.501 20.2501 24.2771 20.2501 24.001V21.001C20.2501 20.7248 20.0262 20.501 19.7501 20.501Z" fill="#D82B20"/>
<path d="M21.75 7.50098C21.6174 7.50098 21.4902 7.55369 21.3964 7.64746C21.3027 7.74123 21.25 7.86837 21.25 8.00098V11.001C21.25 11.3988 21.092 11.7802 20.8107 12.0615C20.5294 12.3428 20.1478 12.501 19.75 12.501H4.75C4.35218 12.501 3.97064 12.3428 3.68933 12.0615C3.40803 11.7802 3.25 11.3988 3.25 11.001V8.00098C3.25 7.86837 3.19734 7.74123 3.10358 7.64746C3.00981 7.55369 2.88261 7.50098 2.75 7.50098C2.08696 7.50098 1.45108 7.76431 0.982239 8.23315C0.513398 8.702 0.25 9.33794 0.25 10.001V17.001C0.25 17.664 0.513398 18.3 0.982239 18.7688C1.45108 19.2376 2.08696 19.501 2.75 19.501H21.75C22.413 19.501 23.0489 19.2376 23.5178 18.7688C23.9866 18.3 24.25 17.664 24.25 17.001V10.001C24.25 9.33794 23.9866 8.702 23.5178 8.23315C23.0489 7.76431 22.413 7.50098 21.75 7.50098ZM22.75 10.501C22.6511 10.501 22.5545 10.4717 22.4722 10.4167C22.39 10.3618 22.3259 10.2837 22.2881 10.1924C22.2502 10.101 22.2403 10.0003 22.2596 9.90332C22.2789 9.80633 22.3265 9.71739 22.3964 9.64746C22.4663 9.57753 22.5555 9.52979 22.6525 9.5105C22.7495 9.49121 22.85 9.50122 22.9413 9.53906C23.0327 9.57691 23.1108 9.64092 23.1657 9.72314C23.2207 9.80537 23.25 9.90209 23.25 10.001C23.25 10.1336 23.1973 10.2607 23.1036 10.3545C23.0098 10.4483 22.8826 10.501 22.75 10.501Z" fill="#D82B20"/>
<path d="M19.7499 0.50095H8.68994H8.61993C8.53727 0.520764 8.46137 0.562292 8.39996 0.621067L4.39996 4.62107C4.34118 4.68248 4.29978 4.75837 4.27996 4.84104C4.27869 4.86435 4.27869 4.88755 4.27996 4.91086C4.27996 4.91086 4.27996 4.91092 4.27996 4.97092V10.9709C4.27996 11.1035 4.33262 11.2307 4.42639 11.3244C4.52016 11.4182 4.64736 11.4709 4.77996 11.4709H19.78C19.9126 11.4709 20.0397 11.4182 20.1335 11.3244C20.2272 11.2307 20.28 11.1035 20.28 10.9709V0.970921C20.2761 0.905219 20.2594 0.840923 20.2306 0.781712C20.2019 0.722501 20.1618 0.669616 20.1125 0.62595C20.0633 0.582284 20.0059 0.54876 19.9437 0.527317C19.8814 0.505875 19.8156 0.49689 19.7499 0.50095V0.50095ZM8.24994 2.21091V4.50095H5.95996L8.24994 2.21091Z" fill="#D82B20"/>
</g>
<defs>
<clipPath id="clip0_717_292">
<rect width="24" height="24" fill="white" transform="translate(0.25 0.5)"/>
</clipPath>
</defs>
</svg>
