<svg width="25" height="25" viewBox="0 0 25 25" fill="none" xmlns="http://www.w3.org/2000/svg">
<g clip-path="url(#clip0_709_272)">
<path d="M21.2479 11.7479H13.0022V3.50225C13.0022 3.0875 12.6647 2.75 12.25 2.75C11.8353 2.75 11.4979 3.0875 11.4979 3.50225V11.7479H3.25225C2.8375 11.7479 2.5 12.0853 2.5 12.5C2.5 12.9147 2.8375 13.2522 3.25225 13.2522H11.4979V21.4979C11.4979 21.9126 11.8353 22.25 12.25 22.25C12.6647 22.25 13.0022 21.9126 13.0022 21.4979V13.2522H21.2479C21.6626 13.2522 22 12.9147 22 12.5C22 12.0853 21.6626 11.7479 21.2479 11.7479Z" fill="#D82B20" stroke="#D82B20" stroke-width="1.5"/>
</g>
<defs>
<clipPath id="clip0_709_272">
<rect width="24" height="24" fill="white" transform="translate(0.25 0.5)"/>
</clipPath>
</defs>
</svg>
