<svg width="25" height="24" viewBox="0 0 25 24" fill="none" xmlns="http://www.w3.org/2000/svg">
<path d="M23.8855 14.6158L21.6896 12.9069C21.7061 12.6057 21.7061 12.3038 21.6896 12.0027C21.7061 11.7048 21.7061 11.4063 21.6896 11.1084L23.8855 9.38953C24.0849 9.22929 24.2205 9.00308 24.2679 8.75167C24.3152 8.50026 24.2712 8.24019 24.1437 8.01836L21.8684 4.04399C21.7439 3.81738 21.541 3.64396 21.2977 3.55617C21.0545 3.46838 20.7875 3.47226 20.5469 3.56709L17.9636 4.56068C17.4791 4.21008 16.9597 3.91039 16.4136 3.66642L16.0162 0.924095C15.9824 0.668578 15.8571 0.434021 15.6633 0.264045C15.4696 0.094068 15.2207 0.000193237 14.963 1.48901e-07H10.3924C10.1362 -0.000135435 9.88856 0.0923263 9.69504 0.260285C9.50152 0.428243 9.37516 0.66044 9.33924 0.914149L8.94178 3.66642C8.39742 3.91371 7.87833 4.21321 7.39178 4.56068L4.79851 3.56709C4.56151 3.47691 4.30006 3.47442 4.06138 3.56005C3.8227 3.64568 3.62252 3.81377 3.49691 4.03405L1.21166 8.00842C1.08213 8.2297 1.03695 8.49036 1.08442 8.74233C1.1319 8.9943 1.26877 9.2206 1.46994 9.37958L3.6658 11.0985C3.5996 11.6961 3.5996 12.2993 3.6658 12.8969L1.46994 14.6158C1.2705 14.7761 1.13488 15.0023 1.08752 15.2537C1.04015 15.5051 1.0842 15.7652 1.21166 15.987L3.48696 19.9614C3.61154 20.188 3.81444 20.3614 4.05768 20.4492C4.30093 20.537 4.56787 20.5331 4.80846 20.4383L7.39178 19.4447C7.87863 19.7917 8.39768 20.0912 8.94178 20.3389L9.33924 23.0813C9.37315 23.3358 9.49889 23.5692 9.69286 23.7376C9.88682 23.9059 10.1356 23.9975 10.3924 23.9953H14.963C15.2183 23.9979 15.4658 23.9076 15.6596 23.7413C15.8533 23.575 15.98 23.344 16.0162 23.0912L16.4136 20.3389C16.958 20.0939 17.4744 19.7907 17.9537 19.4347L20.5569 20.4283C20.6794 20.4805 20.8112 20.5075 20.9444 20.5078C21.1316 20.5061 21.3149 20.4546 21.4756 20.3586C21.6363 20.2625 21.7684 20.1255 21.8585 19.9614L24.1537 15.987C24.278 15.7636 24.3193 15.5033 24.2702 15.2524C24.2211 15.0014 24.0848 14.7759 23.8855 14.6158V14.6158ZM12.6777 15.9572C11.8916 15.9572 11.1232 15.7241 10.4696 15.2874C9.81606 14.8507 9.30669 14.23 9.00588 13.5037C8.70507 12.7775 8.62632 11.9783 8.77968 11.2074C8.93303 10.4364 9.31156 9.72837 9.86739 9.17254C10.4232 8.61672 11.1314 8.23818 11.9024 8.08483C12.6733 7.93148 13.4724 8.0101 14.1987 8.31091C14.9249 8.61172 15.5455 9.12116 15.9823 9.77474C16.419 10.4283 16.6521 11.1967 16.6521 11.9828C16.6521 13.0369 16.2333 14.0477 15.488 14.793C14.7427 15.5384 13.7318 15.9572 12.6777 15.9572Z" fill="white"/>
</svg>
