<svg width="26" height="27" viewBox="0 0 26 27" fill="none" xmlns="http://www.w3.org/2000/svg">
<path d="M12.7294 15.6049C13.006 15.6049 13.231 15.3799 13.231 15.1033V2.10487C13.231 1.82827 13.006 1.60327 12.7294 1.60327C12.4528 1.60327 12.2278 1.82827 12.2278 2.10487V15.1033C12.2278 15.3799 12.4528 15.6049 12.7294 15.6049Z" fill="white" stroke="white" stroke-width="1.5"/>
<path d="M17.0278 5.48437C16.7747 5.37667 16.4794 5.48917 16.3715 5.74222C16.259 5.99542 16.3762 6.29062 16.6294 6.39847C20.0935 7.91257 22.3294 11.3297 22.3294 15.1031C22.3294 20.3392 18.0685 24.6047 12.8278 24.6047C7.58706 24.6047 3.32616 20.3392 3.32616 15.1031C3.32616 11.3297 5.56206 7.91257 9.02616 6.39847C9.27936 6.29062 9.39651 5.99542 9.28401 5.74222C9.17616 5.48917 8.88081 5.37667 8.62776 5.48437C4.80276 7.15792 2.32776 10.9313 2.32776 15.1031C2.32776 20.8922 7.03866 25.6031 12.8278 25.6031C18.6169 25.6031 23.3278 20.8922 23.3278 15.1031C23.3278 10.9313 20.8528 7.15792 17.0278 5.48437Z" fill="white" stroke="white" stroke-width="1.5"/>
</svg>
