<svg width="25" height="25" viewBox="0 0 25 25" fill="none" xmlns="http://www.w3.org/2000/svg">
<g clip-path="url(#clip0_751_277)">
<path d="M21.3278 7.10327H9.76776C9.45589 7.10748 9.15066 7.01305 8.89565 6.83347C8.64064 6.65388 8.44889 6.39832 8.34776 6.10327L8.25776 5.84326C8.09719 5.34005 7.78136 4.90064 7.35558 4.58804C6.92981 4.27545 6.41596 4.10574 5.88776 4.10327H2.32776C1.66472 4.10327 1.02883 4.36667 0.55999 4.83551C0.091149 5.30435 -0.172241 5.94023 -0.172241 6.60327V18.6033C-0.172241 19.2663 0.091149 19.9022 0.55999 20.371C1.02883 20.8399 1.66472 21.1033 2.32776 21.1033H21.3278C21.9908 21.1033 22.6267 20.8399 23.0955 20.371C23.5644 19.9022 23.8278 19.2663 23.8278 18.6033V9.60327C23.8278 8.94023 23.5644 8.30435 23.0955 7.83551C22.6267 7.36667 21.9908 7.10327 21.3278 7.10327Z" fill="white"/>
<path d="M20.3278 2.10327H5.88775C5.75514 2.10327 5.62797 2.15596 5.5342 2.24973C5.44043 2.34349 5.38775 2.47066 5.38775 2.60327C5.38775 2.73588 5.44043 2.86305 5.5342 2.95682C5.62797 3.05059 5.75514 3.10327 5.88775 3.10327C6.62188 3.10313 7.33747 3.33382 7.93327 3.76273C8.52907 4.19163 8.97493 4.79706 9.20775 5.49329L9.29775 5.76328C9.33227 5.86099 9.39574 5.94585 9.4797 6.00659C9.56367 6.06733 9.66414 6.10106 9.76775 6.10327H21.3278C21.6223 6.1066 21.9151 6.15035 22.1978 6.23328H22.3278C22.4393 6.23548 22.5485 6.20027 22.6377 6.13327C22.6974 6.08517 22.7455 6.02421 22.7784 5.95496C22.8113 5.8857 22.8282 5.80994 22.8278 5.73328V4.60327C22.8278 3.94023 22.5644 3.30435 22.0955 2.83551C21.6267 2.36667 20.9908 2.10327 20.3278 2.10327Z" fill="white"/>
</g>
<defs>
<clipPath id="clip0_751_277">
<rect width="24" height="24" fill="white" transform="translate(0.25 0.5)"/>
</clipPath>
</defs>
</svg>
