<svg width="26" height="23" viewBox="0 0 26 23" fill="none" xmlns="http://www.w3.org/2000/svg">
<path d="M24.2475 9.49487L2.45743 9.49487L9.59744 2.34497C9.69027 2.25214 9.74246 2.12615 9.74246 1.99487C9.74246 1.8636 9.69027 1.7376 9.59744 1.64478C9.50462 1.55195 9.37874 1.5 9.24747 1.5C9.11619 1.5 8.99032 1.55195 8.89749 1.64478L0.897492 9.64478C0.846863 9.68703 0.808827 9.74253 0.787506 9.80493C0.737497 9.92666 0.737497 10.0631 0.787506 10.1848C0.808827 10.2472 0.846863 10.3027 0.897492 10.345L8.89749 18.345C8.94238 18.3928 8.9966 18.4307 9.05679 18.4568C9.11699 18.4828 9.18187 18.4963 9.24747 18.4963C9.31306 18.4963 9.37794 18.4828 9.43814 18.4568C9.49834 18.4307 9.55255 18.3928 9.59744 18.345C9.64527 18.3001 9.68344 18.2457 9.7095 18.1855C9.73556 18.1253 9.74893 18.0605 9.74893 17.9949C9.74893 17.9293 9.73556 17.8644 9.7095 17.8042C9.68344 17.744 9.64527 17.6897 9.59744 17.6448L2.45743 10.4949L24.2475 10.4949C24.3801 10.4949 24.5072 10.4422 24.601 10.3484C24.6948 10.2546 24.7475 10.1275 24.7475 9.99487C24.7475 9.86226 24.6948 9.73513 24.601 9.64136C24.5072 9.54759 24.3801 9.49487 24.2475 9.49487Z" fill="white" stroke="white" stroke-width="1.5"/>
</svg>
