<svg width="25" height="25" viewBox="0 0 25 25" fill="none" xmlns="http://www.w3.org/2000/svg">
<path d="M19.75 2.49634H18.75C18.6174 2.49634 18.4902 2.54905 18.3964 2.64282C18.3027 2.73659 18.25 2.86373 18.25 2.99634V3.99634C18.25 4.39416 18.092 4.77558 17.8107 5.05688C17.5294 5.33819 17.1478 5.49634 16.75 5.49634H7.75C7.35218 5.49634 6.97064 5.33819 6.68934 5.05688C6.40803 4.77558 6.25 4.39416 6.25 3.99634V2.99634C6.25 2.86373 6.19732 2.73659 6.10355 2.64282C6.00979 2.54905 5.88261 2.49634 5.75 2.49634H4.75C4.35218 2.49634 3.97064 2.65449 3.68934 2.93579C3.40803 3.2171 3.25 3.59851 3.25 3.99634V22.9963C3.25 23.3942 3.40803 23.7756 3.68934 24.0569C3.97064 24.3382 4.35218 24.4963 4.75 24.4963H19.75C20.1478 24.4963 20.5294 24.3382 20.8107 24.0569C21.092 23.7756 21.25 23.3942 21.25 22.9963V3.99634C21.25 3.59851 21.092 3.2171 20.8107 2.93579C20.5294 2.65449 20.1478 2.49634 19.75 2.49634Z" fill="white"/>
<path d="M7.74994 4.49634H16.7499C16.8825 4.49634 17.0097 4.44362 17.1035 4.34985C17.1973 4.25609 17.2499 4.12895 17.2499 3.99634V2.99634C17.2499 2.59851 17.0919 2.2171 16.8106 1.93579C16.5293 1.65449 16.1478 1.49634 15.7499 1.49634H13.9799C13.8041 1.19326 13.5518 0.941725 13.2482 0.766846C12.9446 0.591967 12.6003 0.5 12.2499 0.5C11.8996 0.5 11.5553 0.591967 11.2517 0.766846C10.9481 0.941725 10.6957 1.19326 10.5199 1.49634H8.74994C8.35211 1.49634 7.97058 1.65449 7.68928 1.93579C7.40797 2.2171 7.24994 2.59851 7.24994 2.99634V3.99634C7.24994 4.12895 7.30262 4.25609 7.39639 4.34985C7.49015 4.44362 7.61733 4.49634 7.74994 4.49634Z" fill="white"/>
</svg>
