<svg width="25" height="26" viewBox="0 0 25 26" fill="none" xmlns="http://www.w3.org/2000/svg">
<path d="M18.6872 0.501009H9.06134H8.98696C8.89913 0.52206 8.8185 0.566053 8.75325 0.628499L2.37851 7.00324C2.31606 7.06849 2.27207 7.14912 2.25102 7.23695C2.24966 7.26172 2.24966 7.28662 2.25102 7.31139C2.25102 7.31139 2.25102 7.31133 2.25102 7.37507V22.2495C2.25102 22.3904 2.30696 22.5256 2.40659 22.6252C2.50621 22.7248 2.64136 22.7807 2.78225 22.7807H18.7191C18.86 22.7807 18.9951 22.7248 19.0947 22.6252C19.1943 22.5256 19.2503 22.3904 19.2503 22.2495V1.00033C19.2463 0.930528 19.2285 0.862216 19.1979 0.799306C19.1674 0.736397 19.1248 0.680209 19.0725 0.633816C19.0201 0.587423 18.9591 0.551805 18.893 0.529023C18.8269 0.506242 18.757 0.496696 18.6872 0.501009ZM8.59385 2.31777V6.34452C8.59385 6.48541 8.53791 6.62049 8.43829 6.72012C8.33866 6.81974 8.20352 6.87575 8.06263 6.87575H4.03594L8.59385 2.31777Z" fill="white"/>
<path d="M21.8746 3.6884H20.2809V23.3438C20.2809 23.4847 20.225 23.6198 20.1253 23.7194C20.0257 23.8191 19.8906 23.8751 19.7497 23.8751H5.4065V25.4688C5.4065 25.6097 5.46245 25.7447 5.56207 25.8444C5.66169 25.944 5.79684 26 5.93773 26H21.8746C22.0155 26 22.1506 25.944 22.2502 25.8444C22.3499 25.7447 22.4058 25.6097 22.4058 25.4688V4.21963C22.4058 4.07874 22.3499 3.94366 22.2502 3.84403C22.1506 3.74441 22.0155 3.6884 21.8746 3.6884Z" fill="white"/>
</svg>
